<svg width="24" height="24" viewBox="0 0 24 24" fill="none" xmlns="http://www.w3.org/2000/svg">
<path fill-rule="evenodd" clip-rule="evenodd" d="M12 23C18.0751 23 23 18.0751 23 12C23 5.92487 18.0751 1 12 1C5.92487 1 1 5.92487 1 12C1 18.0751 5.92487 23 12 23ZM12 24C18.6274 24 24 18.6274 24 12C24 5.37258 18.6274 0 12 0C5.37258 0 0 5.37258 0 12C0 18.6274 5.37258 24 12 24Z" fill="#F0F3F8"/>
<path d="M18.0231 8.82522C17.9619 8.98426 15.3937 7.38791 13.0483 8.47701C11.343 9.26884 10.6385 10.8039 10.6385 12.1129C10.6385 13.1442 11.0006 13.9235 11.3964 14.4313C12.0401 15.2572 12.6388 15.5679 13.156 15.844C13.989 16.2887 15.4057 16.3035 15.8359 16.2814C16.6368 16.2403 17.5777 16.0112 18.3713 15.6448C18.6742 15.5049 19.1661 15.2015 19.5971 14.8621C20.3329 14.2826 21.0107 13.5536 20.9989 13.61C20.9801 13.6994 20.9877 13.7702 20.6197 14.409C19.5294 16.3016 17.7168 17.1272 17.7168 17.1272C15.1632 18.4636 12.8971 17.7705 12.4566 17.6041C10.523 16.8737 9.51457 15.5044 9.27896 15.0689C8.89471 14.3587 8.20585 11.75 9.12884 9.67659C9.81284 8.14004 11.3986 7.3851 11.5737 7.31285C14.3991 6.14631 18.0786 8.68071 18.0231 8.82522Z" fill="url(#paint0_linear_12475_52470)"/>
<path d="M18.1034 8.6926C17.9886 8.79784 17.1639 7.81865 15.8397 7.1115C15.461 6.90937 14.0167 6.18288 12.2526 6.22018C9.32809 6.28172 7.38465 8.40371 7.0381 8.79698C5.30594 10.7625 4.49041 13.7891 5.46468 16.1443C6.73085 19.2048 10.9674 20.9652 10.6452 20.9999L10.2746 20.8827C9.82744 20.7082 4.33952 18.2636 4.14297 13.3921C4.03215 10.6471 4.92444 8.42412 5.46468 7.81728C6.40863 6.75697 7.16551 6.24651 7.8036 5.90937C9.08575 5.23237 11.497 4.65224 13.2866 4.91873C15.2946 5.21784 16.555 6.60435 17.1696 7.28049C17.7241 7.89028 18.1962 8.60754 18.1034 8.6926Z" fill="url(#paint1_linear_12475_52470)"/>
<path d="M18.0892 8.82283C18.2248 8.76325 18.0437 6.94049 16.8461 5.55435C16.3631 4.99423 15.832 4.48493 15.18 4.12849C12.4844 2.68413 9.17004 3.84562 8.45259 4.12849C7.71767 4.41812 6.14956 5.20954 4.8331 6.83336C3.34915 8.66398 3.12939 10.6279 3.0449 11.4876C2.68387 15.1584 4.61456 18.0412 4.75198 17.9978C4.83206 17.9724 3.95615 16.1382 4.14322 13.3927C4.21448 12.3475 4.36086 10.4331 5.70154 8.59558C6.51366 7.51188 7.45318 6.60982 8.67878 6.01426C9.38799 5.66788 11.9256 4.55148 14.4668 5.4381C15.2411 5.71378 15.9539 6.13456 16.5661 6.67727C17.6724 7.67689 17.9782 8.8717 18.0892 8.82283Z" fill="url(#paint2_linear_12475_52470)"/>
<path d="M14.1848 19.1044C14.1212 19.2115 9.72454 17.9711 8.07288 14.9142C7.82429 14.4543 6.67633 12.0029 7.42947 10.0945C7.74445 9.29627 8.36456 8.40263 8.61502 8.12506C9.01961 7.67676 9.70599 7.27374 10.5775 6.90852C10.9692 6.74829 11.6846 6.5815 12.1049 6.52626C12.5215 6.47555 13.1613 6.48643 13.5791 6.52626C14.3914 6.60367 15.4891 7.54129 15.4583 7.54129C15.45 7.54129 14.587 7.26779 13.6947 7.20717C12.9551 7.15693 12.1529 7.32671 11.8684 7.42615C11.2406 7.64557 10.3801 8.12506 9.88253 8.73087C9.38499 9.33667 8.96029 10.1929 8.86982 11.3407C8.80351 12.1821 8.89451 13.4095 9.26345 14.3663C9.4403 14.825 9.74488 15.4087 10.3303 16.1774C11.5764 17.8136 14.2308 19.0277 14.1848 19.1044Z" fill="url(#paint3_linear_12475_52470)"/>
<path d="M11.8029 6.14296C12.5656 6.03427 13.2184 5.99679 13.9747 6.14296C14.8426 6.31529 15.3226 6.49291 15.9138 6.79177C16.9234 7.30224 18.2012 8.61115 18.1038 8.8076C17.9306 9.1578 15.2401 6.34394 11.5439 7.31231C10.4987 7.665 9.85403 7.99434 9.18648 8.49736C8.04951 9.35412 7.4861 10.4811 7.30808 10.9419C7.00242 11.7332 6.91943 12.1784 6.88242 13.0204C6.88242 14.1541 7.09704 14.8117 7.35662 15.5325C7.72589 16.5586 8.41458 17.7314 8.30394 17.6554C7.03871 16.7865 6.24806 14.1056 6.1607 13.5499C6.07335 12.9943 5.70033 10.5875 7.30807 8.58349C8.77379 6.75657 11.2343 6.22482 11.8029 6.14296Z" fill="url(#paint4_linear_12475_52470)"/>
<defs>
<linearGradient id="paint0_linear_12475_52470" x1="16.4142" y1="7.06587" x2="16.4142" y2="17.9781" gradientUnits="userSpaceOnUse">
<stop stop-color="#FAB961"/>
<stop offset="1"/>
</linearGradient>
<linearGradient id="paint1_linear_12475_52470" x1="11.1244" y1="4.85254" x2="11.1244" y2="21.027" gradientUnits="userSpaceOnUse">
<stop stop-color="#FAB961"/>
<stop offset="1"/>
</linearGradient>
<linearGradient id="paint2_linear_12475_52470" x1="10.5662" y1="3.50961" x2="10.5662" y2="17.9985" gradientUnits="userSpaceOnUse">
<stop/>
<stop offset="0.414296" stop-color="#FAB961"/>
</linearGradient>
<linearGradient id="paint3_linear_12475_52470" x1="10.7425" y1="7.02373" x2="10.7425" y2="18.8061" gradientUnits="userSpaceOnUse">
<stop/>
<stop offset="1" stop-color="#FAB961"/>
</linearGradient>
<linearGradient id="paint4_linear_12475_52470" x1="12.0849" y1="6.33056" x2="12.0849" y2="17.6588" gradientUnits="userSpaceOnUse">
<stop/>
<stop offset="1" stop-color="#FAB961"/>
</linearGradient>
</defs>
</svg>
