<svg width="24" height="24" viewBox="0 0 24 24" fill="none" xmlns="http://www.w3.org/2000/svg">
<path fill-rule="evenodd" clip-rule="evenodd" d="M12 23C18.0751 23 23 18.0751 23 12C23 5.92487 18.0751 1 12 1C5.92487 1 1 5.92487 1 12C1 18.0751 5.92487 23 12 23ZM12 24C18.6274 24 24 18.6274 24 12C24 5.37258 18.6274 0 12 0C5.37258 0 0 5.37258 0 12C0 18.6274 5.37258 24 12 24Z" fill="#F0F3F8"/>
<path d="M19.0016 13.9823L17.2775 13.0194L13.4379 15.2763C13.1818 15.423 12.9012 15.4992 12.617 15.4992C12.3328 15.4992 12.0522 15.423 11.796 15.2763L6.74392 12.5078L4.99463 13.531C4.81524 13.6463 4.66539 13.8174 4.56095 14.026C4.45651 14.2346 4.40137 14.4729 4.40137 14.7158C4.40137 14.9587 4.45651 15.197 4.56095 15.4056C4.66539 15.6142 4.81524 15.7853 4.99463 15.9007L11.7645 19.6246C12.0196 19.7751 12.3006 19.8534 12.5854 19.8534C12.8702 19.8534 13.1512 19.7751 13.4064 19.6246L18.97 16.337C19.1479 16.2238 19.2972 16.056 19.4022 15.8509C19.5073 15.6458 19.5645 15.411 19.5677 15.1707C19.5709 14.9305 19.5201 14.6936 19.4206 14.4846C19.321 14.2757 19.1764 14.1022 19.0016 13.9823Z" fill="url(#paint0_linear_12565_51164)"/>
<path d="M10.6945 4.37135C10.9508 4.22463 11.2316 4.14844 11.516 4.14844C11.8004 4.14844 12.0812 4.22463 12.3375 4.37135L19.0103 8.13287C19.1882 8.24889 19.3367 8.41975 19.4401 8.62755C19.5435 8.83535 19.5981 9.07244 19.5981 9.31397C19.5981 9.55553 19.5435 9.79261 19.4401 10.0004C19.3367 10.2082 19.1882 10.3791 19.0103 10.4951L13.4433 13.7827C13.1879 13.9332 12.9068 14.0115 12.6218 14.0115C12.3369 14.0115 12.0557 13.9332 11.8004 13.7827L5.02642 10.0211C4.84673 9.90685 4.69648 9.73662 4.59173 9.52858C4.48697 9.32058 4.43164 9.08258 4.43164 8.84003C4.43164 8.59749 4.48697 8.35951 4.59173 8.15148C4.69648 7.94346 4.84673 7.77321 5.02642 7.65892L10.6945 4.37135Z" fill="url(#paint1_linear_12565_51164)"/>
<defs>
<linearGradient id="paint0_linear_12565_51164" x1="19.5649" y1="15.3978" x2="4.40482" y2="15.3978" gradientUnits="userSpaceOnUse">
<stop stop-color="#EF18AC"/>
<stop offset="1" stop-color="#FAD972"/>
</linearGradient>
<linearGradient id="paint1_linear_12565_51164" x1="17.671" y1="11.5981" x2="4.43441" y2="11.5981" gradientUnits="userSpaceOnUse">
<stop stop-color="#5314F1"/>
<stop offset="1" stop-color="#04E2FF"/>
</linearGradient>
</defs>
</svg>
