<svg width="24" height="24" viewBox="0 0 24 24" fill="none" xmlns="http://www.w3.org/2000/svg">
<path fill-rule="evenodd" clip-rule="evenodd" d="M12 23C18.0751 23 23 18.0751 23 12C23 5.92487 18.0751 1 12 1C5.92487 1 1 5.92487 1 12C1 18.0751 5.92487 23 12 23ZM12 24C18.6274 24 24 18.6274 24 12C24 5.37258 18.6274 0 12 0C5.37258 0 0 5.37258 0 12C0 18.6274 5.37258 24 12 24Z" fill="#F0F3F8"/>
<path d="M16.949 4.19877L16.2058 3.66504C14.0657 4.02917 8.12464 5.53059 7.41134 9.69566C7.20343 10.9097 8.1795 12.6985 10.0954 13.9156C8.88282 12.913 7.57519 11.1278 8.19945 9.29662C8.97148 7.03201 13.0279 4.72252 16.949 4.19877Z" fill="#BBA5E1"/>
<path fill-rule="evenodd" clip-rule="evenodd" d="M17.2671 4.53569C17.2534 4.53794 17.1456 4.55536 17.0276 4.57438C15.7416 4.78182 14.2289 5.23565 13.0322 5.77314C11.2261 6.58426 9.84625 7.64856 8.93486 8.93338C8.74325 9.20352 8.61432 9.41462 8.54375 9.57376C8.32616 10.0645 8.28714 10.6289 8.42742 11.2562C8.45451 11.3774 8.54084 11.6581 8.55523 11.6719C8.5581 11.6746 8.55728 11.6322 8.55341 11.5776C8.54101 11.403 8.54635 11.2256 8.56799 11.0932C8.70227 10.2717 9.21975 9.38669 10.0205 8.60916C11.109 7.55219 12.7042 6.6668 14.7751 5.97016C15.7361 5.64688 16.5795 5.41942 17.7709 5.16224C17.941 5.12553 18.0811 5.09457 18.0824 5.09346C18.0899 5.08653 17.6437 4.74294 17.4552 4.6105C17.3414 4.53056 17.3288 4.52556 17.2671 4.53569Z" fill="#764BC4"/>
<path d="M18.2017 5.5272C17.1785 5.66823 15.8188 6.02072 14.7481 6.42249C13.0337 7.06576 11.6081 7.87829 10.4234 8.88721C10.2544 9.03113 9.89007 9.39542 9.76361 9.54692C9.40776 9.97322 9.14006 10.4233 9.00267 10.8262C8.90543 11.1114 8.86161 11.3538 8.87801 11.5157C8.89727 11.7057 9.00348 12.0281 9.15599 12.3594C9.22866 12.5173 9.30475 12.6688 9.30555 12.6572C9.30583 12.6532 9.28602 12.5874 9.26152 12.511C9.23703 12.4346 9.21236 12.3436 9.20668 12.3088C9.16154 12.0319 9.20288 11.6583 9.31581 11.3223C9.58988 10.507 10.2513 9.72438 11.3045 8.9694C11.6503 8.72148 11.8968 8.55776 12.2041 8.37193C13.3666 7.66904 14.6139 7.16283 16.045 6.81307C16.5739 6.68379 16.9208 6.61006 17.7099 6.45919C17.9233 6.41839 18.0988 6.38377 18.0999 6.38224C18.101 6.38072 18.2034 6.17858 18.3275 5.93303L18.553 5.4866C18.4601 5.4896 18.3686 5.503 18.2768 5.51643C18.2518 5.52009 18.2268 5.52375 18.2017 5.5272Z" fill="#764BC4"/>
<path d="M17.6013 6.91426C17.2519 6.95575 16.7316 7.05421 16.3108 7.15844C15.0674 7.46647 13.945 7.91077 12.8289 8.53673C12.2249 8.87548 11.5873 9.30556 11.0669 9.7252C10.4628 10.2123 10.1863 10.4927 9.92942 10.8787C9.66999 11.2686 9.54113 11.6298 9.5042 12.0707C9.47421 12.4287 9.56083 12.8507 9.73598 13.1999C9.78422 13.2961 9.86613 13.4352 9.89371 13.4677L9.9147 13.4925L9.8962 13.4476C9.83404 13.2967 9.79481 13.0597 9.79508 12.8366C9.79546 12.5196 9.85666 12.2448 9.99961 11.9184C10.2091 11.4401 10.6434 10.9046 11.1267 10.5287C11.977 9.86745 13.0621 9.21745 14.1345 8.72684C15.1269 8.27289 16.1104 7.94986 17.1505 7.73622C17.2922 7.70712 17.4095 7.68175 17.4112 7.67984C17.4202 7.66988 17.8956 6.90315 17.8956 6.8986C17.8956 6.88825 17.7592 6.89549 17.6013 6.91426Z" fill="#5928B1"/>
<path d="M7.04999 19.8032L7.79322 20.3369C9.93333 19.9728 15.8744 18.4714 16.5877 14.3063C16.7956 13.0923 15.8195 11.3034 13.9036 10.0863C15.1162 11.089 16.4238 12.8742 15.7996 14.7053C15.0275 16.9699 10.9711 19.2794 7.04999 19.8032Z" fill="#BBA5E1"/>
<path fill-rule="evenodd" clip-rule="evenodd" d="M6.73195 19.4663C6.74567 19.464 6.85341 19.4466 6.97138 19.4276C8.25745 19.2201 9.77009 18.7663 10.9669 18.2288C12.7729 17.4177 14.1528 16.3534 15.0642 15.0686C15.2558 14.7984 15.3847 14.5873 15.4553 14.4282C15.6729 13.9374 15.7119 13.373 15.5716 12.7457C15.5445 12.6246 15.4582 12.3438 15.4438 12.3301C15.4409 12.3274 15.4417 12.3698 15.4456 12.4243C15.458 12.599 15.4527 12.7763 15.431 12.9087C15.2968 13.7303 14.7793 14.6153 13.9785 15.3928C12.89 16.4498 11.2949 17.3352 9.22396 18.0318C8.26295 18.3551 7.41953 18.5825 6.22815 18.8397C6.05806 18.8764 5.91789 18.9074 5.91666 18.9085C5.9091 18.9154 6.35531 19.259 6.54386 19.3915C6.65765 19.4714 6.67022 19.4764 6.73195 19.4663Z" fill="#764BC4"/>
<path d="M5.79734 18.4748C6.82048 18.3337 8.18025 17.9812 9.25095 17.5795C10.9653 16.9362 12.391 16.1237 13.5756 15.1147C13.7446 14.9708 14.109 14.6065 14.2354 14.455C14.5913 14.0287 14.859 13.5787 14.9964 13.1757C15.0936 12.8905 15.1374 12.6481 15.121 12.4863C15.1018 12.2963 14.9955 11.9739 14.843 11.6425C14.7704 11.4846 14.6943 11.3331 14.6935 11.3447C14.6932 11.3487 14.713 11.4145 14.7375 11.4909C14.762 11.5674 14.7867 11.6584 14.7923 11.6932C14.8375 11.97 14.7961 12.3437 14.6832 12.6796C14.4091 13.4949 13.7477 14.2776 12.6946 15.0326C12.3487 15.2805 12.1022 15.4442 11.7949 15.63C10.6324 16.3329 9.38517 16.8391 7.95404 17.1889C7.42512 17.3182 7.0782 17.3919 6.28912 17.5428C6.07573 17.5836 5.90024 17.6182 5.89913 17.6197C5.89802 17.6212 5.79561 17.8234 5.67156 18.0689L5.44601 18.5154C5.53888 18.5123 5.63045 18.499 5.72224 18.4855C5.74725 18.4819 5.77227 18.4782 5.79734 18.4748Z" fill="#764BC4"/>
<path d="M6.39775 17.0877C6.7471 17.0462 7.26745 16.9477 7.6882 16.8435C8.93164 16.5355 10.0541 16.0912 11.1702 15.4652C11.7741 15.1265 12.4118 14.6964 12.9322 14.2768C13.5363 13.7896 13.8127 13.5093 14.0696 13.1232C14.329 12.7333 14.4579 12.3721 14.4948 11.9312C14.5248 11.5733 14.4382 11.1513 14.263 10.802C14.2148 10.7058 14.1329 10.5668 14.1053 10.5342L14.0843 10.5094L14.1028 10.5543C14.165 10.7052 14.2042 10.9423 14.2039 11.1653C14.2036 11.4824 14.1424 11.7571 13.9994 12.0835C13.7899 12.5619 13.3557 13.0973 12.8723 13.4732C12.022 14.1345 10.937 14.7845 9.86448 15.2751C8.87211 15.7291 7.88864 16.0521 6.84848 16.2657C6.70681 16.2948 6.58949 16.3202 6.58777 16.3221C6.57879 16.3321 6.10345 17.0988 6.10345 17.1033C6.10345 17.1137 6.23978 17.1065 6.39775 17.0877Z" fill="#5928B1"/>
</svg>
