<svg width="24" height="24" viewBox="0 0 24 24" fill="none" xmlns="http://www.w3.org/2000/svg">
<circle cx="12" cy="12" r="11" fill="black"/>
<path fill-rule="evenodd" clip-rule="evenodd" d="M14.7934 10.1818C16.0725 8.77714 15.8737 6.68287 14.3492 5.50417C12.8959 4.38047 10.7624 4.49455 9.45816 5.72475C7.84996 6.4202 7.04803 8.21277 7.65974 9.84073C8.29939 11.5431 10.2427 12.4209 12 11.8013L10.8419 8.71885L9.99864 6.47465L12.033 8.04764L14.7934 10.1818ZM16.3403 14.1592C16.9521 15.7872 16.1502 17.5798 14.542 18.2753C13.2378 19.5055 11.1043 19.6196 9.65092 18.4958C8.12644 17.3172 7.9276 15.2229 9.20678 13.8182L11.967 15.9524L14.0015 17.5255L13.1583 15.2812L12 12.1987C13.7575 11.5791 15.7007 12.4569 16.3403 14.1592Z" fill="white"/>
</svg>
