<svg width="24" height="24" viewBox="0 0 24 24" fill="none" xmlns="http://www.w3.org/2000/svg">
<path d="M12 23C18.0751 23 23 18.0751 23 12C23 5.92487 18.0751 1 12 1C5.92487 1 1 5.92487 1 12C1 18.0751 5.92487 23 12 23Z" fill="#E6007A"/>
<path d="M12 23C18.0751 23 23 18.0751 23 12C23 5.92487 18.0751 1 12 1C5.92487 1 1 5.92487 1 12C1 18.0751 5.92487 23 12 23Z" fill="url(#paint0_linear_6886_32936)"/>
<path fill-rule="evenodd" clip-rule="evenodd" d="M0.0293655 12.8443C0.0370102 12.9543 0.0461349 13.0639 0.0567245 13.173C0.068718 13.2967 0.082592 13.4198 0.0983086 13.5423C0.250088 14.7253 0.57412 15.8544 1.04446 16.9036C1.02156 16.7785 0.99604 16.6554 0.970009 16.5356C0.916473 16.2815 0.8363 15.9817 0.748974 15.6551C0.571865 14.9928 0.365318 14.2204 0.291843 13.4963C0.414013 13.4683 0.536617 13.4423 0.659592 13.4181C3.03767 15.5886 5.38517 17.7923 7.70197 20.0291C7.40224 20.9565 7.08541 21.8784 6.75158 22.7944C6.86529 22.8498 6.98 22.9034 7.09568 22.9553C7.41478 22.0837 7.71873 21.2065 8.00736 20.3243C8.4568 20.7593 8.90508 21.1955 9.35219 21.633C10.1533 22.4173 10.9508 23.2055 11.7447 23.9974C11.8296 23.9992 11.9148 24 12.0001 24C12.0993 24 12.1983 23.9988 12.2969 23.9964C10.9228 22.6242 9.5373 21.263 8.14065 19.9131C8.60242 18.4755 9.02356 17.025 9.40332 15.5643C10.2377 17.8896 11.7509 19.8776 14.2765 20.7074C16.0969 21.3064 18.0762 21.2675 19.958 20.982C20.1103 20.8469 20.2592 20.708 20.4045 20.5654C19.5451 20.7031 18.6835 20.7842 17.8304 20.8038C15.8326 20.8487 13.7386 20.4567 12.1633 19.1453C10.9321 18.1234 10.1401 16.6962 9.64697 15.1825C9.68096 15.1966 9.71504 15.2105 9.7492 15.2241C11.4077 15.8863 13.0918 15.6869 14.5199 14.6006C15.4184 13.9166 16.0724 13.0814 16.6012 12.1675C17.767 12.1754 18.9328 12.1605 20.0978 12.1229C19.6879 13.1205 19.3117 14.2069 19.8475 15.147C20.0842 15.5575 20.4249 15.9045 20.7557 16.2413C20.8186 16.3053 20.8811 16.369 20.9425 16.4327C21.4227 16.932 21.903 17.4262 22.4015 17.906C22.313 18.0819 22.2234 18.2571 22.1327 18.4318C22.2363 18.269 22.3361 18.1034 22.4319 17.9353C22.4986 17.8184 22.5634 17.7002 22.6262 17.5808C22.6626 17.5116 22.6984 17.442 22.7335 17.372C22.8793 17.0811 23.0137 16.7836 23.136 16.4798C23.2123 16.2903 23.284 16.0983 23.3508 15.9041C23.2801 16.0627 23.2085 16.221 23.1361 16.3788C23.1393 14.8921 23.2529 13.4095 23.5098 11.9475C23.6732 11.936 23.8365 11.924 23.9998 11.9116C23.9989 11.7853 23.996 11.6594 23.9912 11.534C23.8544 11.5443 23.7175 11.5543 23.5806 11.564C23.6652 11.1269 23.763 10.6917 23.8747 10.259C23.8306 9.95546 23.7751 9.65558 23.7087 9.35984C23.4884 10.0938 23.3086 10.8388 23.1659 11.5924C22.3367 11.6472 21.5066 11.6904 20.6761 11.7221C21.3996 9.69425 22.0485 7.61557 22.0684 5.46835C21.9422 5.27416 21.8105 5.08385 21.6735 4.89764C21.6932 5.29033 21.6903 5.68288 21.6661 6.07051C21.5572 7.7804 21.0899 9.44527 20.5262 11.0523C20.4502 11.2712 20.3566 11.5005 20.2582 11.737C19.1101 11.7753 17.9614 11.7915 16.8128 11.7856C17.2685 10.9284 17.6328 10.0131 17.9978 9.09573C18.541 7.73075 19.0861 6.36106 19.9372 5.17058C20.0233 5.05011 20.1125 4.93407 20.2046 4.82212C20.6505 4.79001 21.0964 4.75674 21.5422 4.72239C21.4484 4.59966 21.3524 4.47878 21.254 4.35983C21.0268 4.37714 20.7996 4.39416 20.5723 4.41087C20.7013 4.27803 20.8345 4.15144 20.9716 4.03036C20.8926 3.94152 20.8123 3.85387 20.7308 3.76743C20.7116 3.78506 20.6926 3.80281 20.6736 3.82067C20.4639 4.0178 20.2686 4.22707 20.0857 4.44619C17.5307 4.62918 14.9714 4.77345 12.4105 4.8671C12.3997 4.46817 12.3487 4.07918 12.2466 3.7114C12.1245 3.27636 11.9119 2.92829 11.6366 2.65974C11.716 1.77489 11.7808 0.888557 11.8309 0.0012207C11.7002 0.00302887 11.57 0.00692368 11.4403 0.0128784C11.3956 0.799805 11.3393 1.58597 11.2713 2.37105C11.0031 2.20014 10.6991 2.08237 10.3754 2.01346C10.3886 1.97943 10.4018 1.94546 10.4152 1.91153C10.6697 1.26677 10.9573 0.637375 11.2732 0.0217094C11.1237 0.0306396 10.975 0.0423088 10.827 0.0566635C10.5203 0.676697 10.2429 1.31054 9.99561 1.95553C9.75826 1.93287 9.51416 1.9337 9.26894 1.95652C7.89063 2.08624 6.57569 2.67947 5.30891 3.25098C5.18583 3.3065 5.0632 3.36183 4.94101 3.4165C4.84645 3.11238 4.75505 2.80717 4.66649 2.50101C4.55399 2.58799 4.44308 2.67693 4.33381 2.76777C4.41338 3.03802 4.49531 3.30757 4.57978 3.57636C3.95011 3.85111 3.32264 4.1325 2.69739 4.41928C2.55718 4.59113 2.42163 4.76694 2.29095 4.94651C2.25305 4.9986 2.21555 5.05101 2.17847 5.10372C2.12785 5.17568 2.078 5.24823 2.02893 5.32133C3.08143 5.34824 4.13434 5.36388 5.18736 5.36908C5.4778 6.16429 5.79498 6.95145 6.14403 7.72897C6.52184 8.57749 6.93808 9.40671 7.39912 10.2102C7.64047 10.6354 7.92348 11.0873 8.35017 11.3229C6.80308 11.1547 5.26103 10.9492 3.71432 10.743C3.52323 10.7175 3.33206 10.6921 3.1408 10.6666C2.19949 10.5445 1.16212 10.5509 0.464134 11.303C0.232224 11.5502 0.0860825 11.8423 0.00109863 12.1548C0.00167847 12.2007 0.0025177 12.2465 0.00361252 12.2923C0.00803757 12.4774 0.0166512 12.6614 0.0293655 12.8443ZM0.264832 13.0584C0.265205 13.0799 0.265736 13.1015 0.266422 13.1232C0.284996 13.1189 0.303577 13.1147 0.32217 13.1106C0.303059 13.0932 0.283947 13.0758 0.264832 13.0584ZM0.796272 13.0138C0.627529 12.8597 0.458641 12.7059 0.2896 12.5521C0.395054 11.7139 0.847839 11.0779 2.00098 10.988C2.52468 10.9447 3.0575 11.0338 3.57639 11.1207C3.67292 11.1368 3.76897 11.1529 3.86439 11.168C4.56877 11.2773 5.27316 11.3737 5.97754 11.4637C6.85059 11.5757 7.72594 11.6737 8.6036 11.7579C8.68281 12.6586 8.83001 13.5718 9.0617 14.4568C8.9142 14.3874 8.76754 14.3175 8.62124 14.2477C7.66368 13.7913 6.7218 13.3423 5.66378 13.0965C4.08402 12.7331 2.41309 12.7158 0.796272 13.0138ZM1.14544 13.333C3.40199 15.3988 5.63177 17.4938 7.83391 19.617C8.3214 18.0801 8.76205 16.5287 9.15531 14.9655C8.89655 14.845 8.64098 14.7176 8.38551 14.5903C7.9217 14.3591 7.45819 14.128 6.97648 13.9385C6.13123 13.6043 5.24114 13.3857 4.34465 13.2764C3.28373 13.1483 2.20409 13.1699 1.14544 13.333ZM9.35677 14.1464C9.5386 13.39 9.70937 12.6308 9.86903 11.8694C9.56747 11.8451 9.26619 11.8193 8.96518 11.7917C9.0435 12.5867 9.17286 13.374 9.35677 14.1464ZM9.42483 11.4332C9.59956 11.45 9.77437 11.4662 9.9493 11.4818C9.97276 11.367 9.99598 11.2522 10.0189 11.1374C9.83548 11.2718 9.63762 11.3745 9.42483 11.4332ZM10.5084 10.6735C10.4543 10.9545 10.3987 11.2352 10.3415 11.5156C10.7453 11.5492 11.1498 11.5793 11.555 11.6051C13.1918 11.7092 14.8317 11.7687 16.4723 11.7833C17.0012 10.8365 17.4102 9.80184 17.8134 8.78196C18.0163 8.26859 18.2177 7.75896 18.4323 7.26615C18.8 6.42485 19.2249 5.59501 19.7678 4.85319C18.5227 4.94072 17.2771 5.0191 16.0311 5.08701C14.8247 5.1521 13.6172 5.20719 12.409 5.25103C12.3685 6.44156 12.0088 7.68716 11.6062 8.69962C11.3738 9.28125 11.0138 10.0799 10.5084 10.6735ZM11.9916 5.26572C11.9741 5.7271 11.91 6.18843 11.8303 6.60405C11.6767 7.40756 11.4333 8.19823 11.1003 8.94389C10.9795 9.21688 10.839 9.51906 10.67 9.80936C10.942 8.30895 11.1712 6.80048 11.3573 5.2863C11.5688 5.2798 11.7802 5.27293 11.9916 5.26572ZM11.9946 4.88186C11.9799 4.27335 11.8673 3.68718 11.5833 3.23058C11.5292 3.78814 11.4694 4.34508 11.4037 4.90128C11.6007 4.89511 11.7976 4.88864 11.9946 4.88186ZM11.01 4.91319C11.0931 4.21466 11.167 3.51498 11.2316 2.8144C10.9808 2.59591 10.656 2.43983 10.2404 2.37094C9.9325 3.20802 9.67175 4.07175 9.46319 4.95184C9.97882 4.94116 10.4944 4.92825 11.01 4.91319ZM9.08023 4.95936C9.28428 4.06941 9.54306 3.19194 9.85473 2.33308C8.51281 2.27642 7.17056 2.87255 5.93715 3.42034C5.72743 3.51348 5.52087 3.60522 5.31799 3.69212C5.23289 3.72873 5.14785 3.76546 5.06289 3.80231C5.19041 4.19964 5.32364 4.59502 5.46332 4.98817C6.66884 4.99175 7.87457 4.98174 9.08023 4.95936ZM5.60151 5.37059C6.73291 5.37326 7.8644 5.364 8.99564 5.34385C8.60537 7.19576 8.45141 9.09745 8.55016 10.9942C8.08337 10.7439 7.77161 10.1328 7.52031 9.6403C7.47607 9.55361 7.43372 9.47059 7.39272 9.39385C6.97648 8.60962 6.59228 7.79969 6.24008 6.98331C6.01301 6.45071 5.80083 5.91289 5.60151 5.37059ZM8.91024 11.1052C8.7915 9.18145 8.96293 7.2252 9.37555 5.33668C9.90486 5.32612 10.4341 5.3132 10.9633 5.29802C10.7458 7.05259 10.4701 8.7997 10.1368 10.5357C9.89455 10.7864 9.61094 10.9816 9.27535 11.0716C9.14537 11.1063 9.02396 11.116 8.91024 11.1052ZM5.04985 4.98641C4.92935 4.64552 4.81358 4.30321 4.70213 3.9596C3.96595 4.28232 3.23438 4.61349 2.50571 4.95142C3.35358 4.97017 4.20165 4.98169 5.04985 4.98641ZM16.2496 12.1644C14.2838 12.1434 12.3184 12.0576 10.3575 11.9072C10.3257 11.9049 10.2939 11.9025 10.2621 11.9001C10.1346 12.5104 9.99989 13.1193 9.85806 13.7264C9.7807 14.0557 9.70125 14.3845 9.61971 14.7129C11.0954 15.3576 12.5753 15.4468 13.9819 14.5557C14.9593 13.9369 15.6748 13.1036 16.2496 12.1644ZM20.5376 12.1076C20.4627 12.3149 20.3873 12.5217 20.3122 12.7279C20.2853 12.8015 20.2585 12.8751 20.2318 12.9486C20.0333 13.495 19.8475 14.0735 20.046 14.652C20.1742 15.0314 20.4366 15.327 20.6992 15.6163C21.1282 16.0855 21.5765 16.5419 22.0246 16.9919C22.2092 17.176 22.3954 17.359 22.5837 17.54C22.633 17.4401 22.6819 17.3399 22.7304 17.2396C22.6921 15.4633 22.7999 13.6985 23.0966 11.9757C22.2444 12.0319 21.3912 12.0759 20.5376 12.1076Z" fill="#E6007A"/>
<path d="M8.37587 15.6346H10.8345L11.6183 12.7923C11.7264 12.4004 12.2775 12.4006 12.3852 12.7926L13.1664 15.6346H15.6202L17.5017 8.36658H15.1979L14.6096 11.251C14.5241 11.6698 13.9349 11.6814 13.8334 11.2662L13.1241 8.36658H10.8767L10.1858 11.2842C10.0871 11.7008 9.49666 11.6927 9.40923 11.2736L9.20174 10.2789C8.96926 9.16444 7.99438 8.36658 6.86507 8.36658H6.49908L8.37587 15.6346Z" fill="white"/>
<path fill-rule="evenodd" clip-rule="evenodd" d="M12 23C18.0751 23 23 18.0751 23 12C23 5.92487 18.0751 1 12 1C5.92487 1 1 5.92487 1 12C1 18.0751 5.92487 23 12 23ZM12 24C18.6274 24 24 18.6274 24 12C24 5.37258 18.6274 0 12 0C5.37258 0 0 5.37258 0 12C0 18.6274 5.37258 24 12 24Z" fill="#F0F3F8"/>
<defs>
<linearGradient id="paint0_linear_6886_32936" x1="1.52272" y1="11.3714" x2="37.2083" y2="11.3982" gradientUnits="userSpaceOnUse">
<stop stop-color="#F79420" stop-opacity="0.92"/>
<stop offset="1" stop-color="#C4C4C4" stop-opacity="0"/>
</linearGradient>
</defs>
</svg>
